<svg xmlns="http://www.w3.org/2000/svg" width="51.552" height="49.997" viewBox="0 0 51.552 49.997">
  <g id="logo" transform="translate(-937.001 -1069.246)">
    <path id="Path_1" data-name="Path 1" d="M985.992,1105.12a25.854,25.854,0,0,1-23.215,14.123c-14.236,0-25.776-11.193-25.776-25s11.54-25,25.776-25c12.905,0,23.6,9.2,25.481,21.2-20.847-17.021-42.176,7.594-42.176,7.594S978.274,1091.968,985.992,1105.12Z" fill="#1bbdb8"/>
    <circle id="Ellipse_1" data-name="Ellipse 1" cx="0.682" cy="0.682" r="0.682" transform="translate(957.196 1093.592)" fill="#da2628"/>
    <path id="Path_2" data-name="Path 2" d="M1002.484,1243.34a1.405,1.405,0,0,0,.3,2.287q-1.806.486-3.682,1.051A40.784,40.784,0,0,1,1002.484,1243.34Z" transform="translate(-53.017 -148.635)" fill="#da2628"/>
    <circle id="Ellipse_2" data-name="Ellipse 2" cx="0.682" cy="0.682" r="0.682" transform="translate(949.731 1095.063)" fill="#da2628"/>
    <path id="Path_3" data-name="Path 3" d="M1061.335,1182.979q-.311-.063-.681-.132l-.011,0c-4.245-.78-14.2-1.9-28.7.778a1.406,1.406,0,1,0-2.252.44q-2.572.529-5.319,1.223a1.387,1.387,0,0,0,.23-.769,1.405,1.405,0,0,0-2.351-1.04c6.827-6.08,22.947-17.191,38.79-4.256A24.44,24.44,0,0,1,1061.335,1182.979Z" transform="translate(-72.783 -88.772)" fill="#da2628"/>
    <path id="Path_4" data-name="Path 4" d="M1009.939,1235.735c24.681-3.2,29.18,3.564,29.859,7.263h0q-.361.892-.789,1.748c-7.718-13.151-39.91-7.077-39.91-7.077,21.628-6.521,36.358-4.965,41.779-3.969l.011,0c.451.1.681.168.681.168a24.28,24.28,0,0,1-1.264,7.75C1039.112,1231.086,1010.571,1235.633,1009.939,1235.735Z" transform="translate(-53.017 -139.627)" fill="#fff"/>
    <path id="Path_5" data-name="Path 5" d="M1103.593,1252.62h0q-.233.7-.508,1.375c-.68-3.7-5.179-10.464-29.859-7.263C1073.858,1246.631,1102.4,1242.084,1103.593,1252.62Z" transform="translate(-116.304 -150.626)" fill="#2fab46"/>
    <g id="Group_1" data-name="Group 1" transform="translate(942.334 1080.576)">
      <path id="Path_6" data-name="Path 6" d="M995.921,1175.238a.479.479,0,0,1-.388-.758,3.149,3.149,0,0,1,2.55-1.308,3.11,3.11,0,0,1,1.923.658.479.479,0,0,1-.587.756,2.161,2.161,0,0,0-1.336-.457,2.189,2.189,0,0,0-1.773.909A.478.478,0,0,1,995.921,1175.238Z" transform="translate(-992.23 -1169.304)" fill="#da2628"/>
      <path id="Path_7" data-name="Path 7" d="M984.762,1163.068a.478.478,0,0,1-.4-.746,5.053,5.053,0,0,1,7.354-1.115.479.479,0,0,1-.6.746,4.049,4.049,0,0,0-2.564-.9,4.094,4.094,0,0,0-3.4,1.807A.478.478,0,0,1,984.762,1163.068Z" transform="translate(-982.703 -1158.138)" fill="#da2628"/>
      <path id="Path_8" data-name="Path 8" d="M973.951,1150.5a.478.478,0,0,1-.393-.751,7.008,7.008,0,0,1,10.225-1.427.479.479,0,1,1-.609.738,6.051,6.051,0,0,0-8.828,1.233A.478.478,0,0,1,973.951,1150.5Z" transform="translate(-973.473 -1146.721)" fill="#da2628"/>
    </g>
    <path id="Path_9" data-name="Path 9" d="M988.64,1181.93l6.882-1.308a.717.717,0,0,1,.837.565l1.271,6.45a.474.474,0,0,1-.376.558l-7.312,1.4a.474.474,0,0,1-.554-.371l-1.318-6.449A.717.717,0,0,1,988.64,1181.93Z" transform="translate(-43.59 -95.078)" fill="#fff"/>
    <path id="Path_10" data-name="Path 10" d="M998.48,1193l-3.172.61a.374.374,0,0,0-.3.413l.058.472a.375.375,0,0,0,.444.322l2.534-.5c0-.036,0-.073,0-.109A1.885,1.885,0,0,1,998.48,1193Zm12.81-1.553-.084-.559a.293.293,0,0,0-.333-.246l-.592.089-.521-2.59a3.024,3.024,0,0,0-.909-1.621l-1.44-1.331a2.283,2.283,0,0,0-1.979-.567l-1.836.349a.58.58,0,0,0-.459.688l1.227,5.9a.3.3,0,0,1-.235.352l-3.294.634a1.891,1.891,0,0,1,.892,1.055l3.784-.74c0-.04,0-.08,0-.12a1.893,1.893,0,0,1,3.688-.6l1.862-.364A.294.294,0,0,0,1011.29,1191.448Zm-3.517-3.867-3.048.522-.361-1.615a.383.383,0,0,1,.313-.462l1.333-.215a.777.777,0,0,1,.639.184l1.26,1.106A.276.276,0,0,1,1007.773,1187.581Z" transform="translate(-49.522 -98.469)" fill="#fff"/>
  </g>
</svg>
